{"title":"Cars 2 2011 CAM XViD V2 - IMAGiNE","uid":6501951,"size":1476963285,"categoryP":"video","categoryS":"movies","magnet":"?xt=urn:btih:5bab6dc7ad7cded4707c87abee67fb4055c107e1&amp;dn=Cars+2+2011+CAM+XViD+V2+-+IMAGiNE&amp;tr=udp%3A%2F%2Ftracker.openbittorrent.com%3A80&amp;tr=udp%3A%2F%2Fopen.demonii.com%3A1337&amp;tr=udp%3A%2F%2Ftracker.coppersurfer.tk%3A6969&amp;tr=udp%3A%2F%2Fexodus.desync.com%3A6969","seeders":1,"leechers":0,"uploader":"TorrentXXLS","files":2,"time":1309278713,"description":"Cars 2 2011 CAM XViD V2 - IMAGiNE\n\n++++++++++++++++++++++++++++++++++\n\n\nRipper ...........: IMAGiNE IMDB Rating.......: 6.6/10 \nVideo Codec.......: XVID Re\nlease Date......: 26/06/11\nAudio Codec.......: MP3\n Theatre Date......: 24/06/11\nAudio Bitrate.....: 128\n Runtime.......: 1h 34mn\nSubtitles.........: ENG WHEN NEEDED\n Language..........: ENGLISH\nResolution......: 720 x 304 \nIMDb URL..........: http://www.imdb.com/title/tt1216475/\n\n\nDETAILS:\n\nVideo\nID : 0\nFormat : MPEG-4 Visual\nFormat profile : Advanced Simple@L5\nFormat settings, BVOP : 2\nFormat settings, QPel : No\nFormat settings, GMC : No warppoints\nFormat settings, Matrix : Default (MPEG)\nMuxing mode : Packed bitstream\nCodec ID : XVID\nCodec ID/Hint : XviD\nDuration : 1h 34mn\nBit rate : 1 945 Kbps\nWidth : 720 pixels\nHeight : 304 pixels\nDisplay aspect ratio : 2.35:1\nFrame rate : 25.000 fps\nColor space : YUV\nChroma subsampling : 4:2:0\nBit depth : 8 bits\nScan type : Progressive\nCompression mode : Lossy\nBits/(Pixel*Frame) : 0.355\nStream size : 1.28 GiB (93%)\nWriting library : XviD 61\n\nAudio\nID : 1\nFormat : MPEG Audio\nFormat version : Version 1\nFormat profile : Layer 3\nMode : Joint stereo\nMode extension : MS Stereo\nCodec ID : 55\nCodec ID/Hint : MP3\nDuration : 1h 34mn\nBit rate mode : Constant\nBit rate : 128 Kbps\nChannel(s) : 2 channels\nSampling rate : 44.1 KHz\nCompression mode : Lossy\nStream size : 86.6 MiB (6%)\nAlignment : Split accross interleaves\nInterleave, duration : 40 ms (1.00 video frame)\nInterleave, preload duration : 500 ms\nWriting library : LAME3.98r\nEncoding settings : -m j -V 4 -q 2 -lowpass 17 -b 128\n\n\n","torrent":{"xt":"urn:btih:5bab6dc7ad7cded4707c87abee67fb4055c107e1","amp;dn":"Cars+2+2011+CAM+XViD+V2+-+IMAGiNE","amp;tr":["udp%3A%2F%2Ftracker.openbittorrent.com%3A80","udp%3A%2F%2Fopen.demonii.com%3A1337","udp%3A%2F%2Ftracker.coppersurfer.tk%3A6969","udp%3A%2F%2Fexodus.desync.com%3A6969"],"infoHash":"5bab6dc7ad7cded4707c87abee67fb4055c107e1","infoHashBuffer":{"type":"Buffer","data":[91,171,109,199,173,124,222,212,112,124,135,171,238,103,251,64,85,193,7,225]},"announce":[],"urlList":[]}}